<svg width="40" height="40" viewBox="0 0 40 40" fill="none" xmlns="http://www.w3.org/2000/svg">
<g clip-path="url(#clip0_150_40)">
<path d="M11.1111 33.3333C9.33333 33.3333 7.55556 31.7777 6.66667 31.1111C2.22222 27.9999 0.888889 26.8888 0 26.2222V35.5555C0 36.7826 0.995139 37.7777 2.22222 37.7777H20C21.2271 37.7777 22.2222 36.7826 22.2222 35.5555V26.2222C21.3333 26.8888 20 27.9999 15.5556 31.1111C14.6667 31.7777 12.8889 33.3333 11.1111 33.3333ZM20 19.9999H2.22222C0.995139 19.9999 0 20.9951 0 22.2222V23.3333C1.77778 24.6666 1.55556 24.6666 8 29.3333C8.66667 29.7777 10 31.1111 11.1111 31.1111C12.2222 31.1111 13.5556 29.7777 14.2222 29.5555C20.6667 24.8888 20.4444 24.8888 22.2222 23.5555V22.2222C22.2222 20.9951 21.2271 19.9999 20 19.9999ZM37.7778 13.3333H15.5556C14.3285 13.3333 13.3333 14.3284 13.3333 15.5555V17.7777H20C22.3063 17.7777 24.2076 19.543 24.4243 21.793L24.4444 21.7777V31.1111H37.7778C39.0049 31.1111 40 30.1159 40 28.8888V15.5555C40 14.3284 39.0049 13.3333 37.7778 13.3333ZM35.5556 22.2222H31.1111V17.7777H35.5556V22.2222ZM11.1111 15.5555C11.1111 13.1048 13.1049 11.1111 15.5556 11.1111H31.1111V4.44439C31.1111 3.21731 30.116 2.22217 28.8889 2.22217H6.66667C5.43958 2.22217 4.44444 3.21731 4.44444 4.44439V17.7777H11.1111V15.5555Z" fill="white"/>
</g>
<defs>
<clipPath id="clip0_150_40">
<rect width="40" height="40" fill="white"/>
</clipPath>
</defs>
</svg>
