<svg width="36" height="36" viewBox="0 0 36 36" fill="none" xmlns="http://www.w3.org/2000/svg">
<path d="M31.75 0.5H4.25C2.17969 0.5 0.5 2.17969 0.5 4.25V31.75C0.5 33.8203 2.17969 35.5 4.25 35.5H31.75C33.8203 35.5 35.5 33.8203 35.5 31.75V4.25C35.5 2.17969 33.8203 0.5 31.75 0.5ZM27.9297 12.9062C27.9453 13.125 27.9453 13.3516 27.9453 13.5703C27.9453 20.3438 22.7891 28.1484 13.3672 28.1484C10.4609 28.1484 7.76562 27.3047 5.5 25.8516C5.91406 25.8984 6.3125 25.9141 6.73438 25.9141C9.13281 25.9141 11.3359 25.1016 13.0938 23.7266C10.8438 23.6797 8.95312 22.2031 8.30469 20.1719C9.09375 20.2891 9.80469 20.2891 10.6172 20.0781C8.27344 19.6016 6.51562 17.5391 6.51562 15.0469V14.9844C7.19531 15.3672 7.99219 15.6016 8.82812 15.6328C8.12533 15.1653 7.5492 14.5311 7.15115 13.7868C6.75309 13.0425 6.54549 12.2113 6.54688 11.3672C6.54688 10.4141 6.79688 9.53906 7.24219 8.78125C9.76562 11.8906 13.5547 13.9219 17.8047 14.1406C17.0781 10.6641 19.6797 7.84375 22.8047 7.84375C24.2812 7.84375 25.6094 8.46094 26.5469 9.46094C27.7031 9.24219 28.8125 8.8125 29.7969 8.22656C29.4141 9.41406 28.6094 10.4141 27.5469 11.0469C28.5781 10.9375 29.5781 10.6484 30.5 10.25C29.8047 11.2734 28.9297 12.1797 27.9297 12.9062Z" fill="white"/>
</svg>
