<svg width="36" height="36" viewBox="0 0 36 36" fill="none" xmlns="http://www.w3.org/2000/svg">
<path d="M18 7.59375C12.3203 7.59375 7.70312 12.2109 7.69531 17.8906C7.69531 19.8359 8.24219 21.7344 9.27344 23.3672L9.51562 23.7578L8.47656 27.5547L12.375 26.5312L12.75 26.7578C14.3281 27.6953 16.1406 28.1953 17.9922 28.1953H18C23.6719 28.1953 28.4141 23.5781 28.4141 17.8984C28.4141 15.1484 27.2266 12.5625 25.2812 10.6172C23.3281 8.66406 20.75 7.59375 18 7.59375ZM24.0547 22.3125C23.7969 23.0391 22.5625 23.6953 21.9688 23.7812C20.9844 23.9297 20.2188 23.8516 18.2578 23.0078C15.1562 21.6641 13.125 18.5391 12.9688 18.3359C12.8125 18.1328 11.7031 16.6562 11.7031 15.1328C11.7031 13.6094 12.5 12.8594 12.7891 12.5469C13.0703 12.2344 13.4062 12.1562 13.6172 12.1562C13.8203 12.1562 14.0312 12.1562 14.2109 12.1641C14.3984 12.1719 14.6562 12.0938 14.9062 12.6953C15.1641 13.3125 15.7812 14.8359 15.8594 14.9922C15.9375 15.1484 15.9922 15.3281 15.8828 15.5312C15.2891 16.7188 14.6562 16.6719 14.9766 17.2188C16.1719 19.2734 17.3672 19.9844 19.1875 20.8984C19.5 21.0547 19.6797 21.0312 19.8594 20.8203C20.0391 20.6172 20.6328 19.9141 20.8359 19.6094C21.0391 19.2969 21.25 19.3516 21.5312 19.4531C21.8125 19.5547 23.3359 20.3047 23.6484 20.4609C23.9609 20.6172 24.1641 20.6953 24.2422 20.8203C24.3125 20.9688 24.3125 21.5938 24.0547 22.3125ZM31.75 0.5H4.25C2.17969 0.5 0.5 2.17969 0.5 4.25V31.75C0.5 33.8203 2.17969 35.5 4.25 35.5H31.75C33.8203 35.5 35.5 33.8203 35.5 31.75V4.25C35.5 2.17969 33.8203 0.5 31.75 0.5ZM17.9922 30.2812C15.9141 30.2812 13.875 29.7578 12.0703 28.7734L5.5 30.5L7.25781 24.0781C6.17188 22.2031 5.60156 20.0703 5.60156 17.8828C5.60938 11.0547 11.1641 5.5 17.9922 5.5C21.3047 5.5 24.4141 6.78906 26.7578 9.13281C29.0938 11.4766 30.5 14.5859 30.5 17.8984C30.5 24.7266 24.8203 30.2812 17.9922 30.2812Z" fill="white"/>
</svg>
